<?xml version="1.0" encoding="UTF-8"?>
<svg version="1.1" xmlns="http://www.w3.org/2000/svg" width="512" height="512">
<path d="M0 0 C0.87785156 0.804375 0.87785156 0.804375 1.7734375 1.625 C4.27218062 3.89717224 4.27218062 3.89717224 7.1484375 5.625 C7.29007324 6.23118164 7.43170898 6.83736328 7.57763672 7.46191406 C8.28043917 10.12522875 9.37495819 11.26278832 11.28125 13.234375 C11.92320312 13.90726563 12.56515625 14.58015625 13.2265625 15.2734375 C14.23976562 16.31371094 14.23976562 16.31371094 15.2734375 17.375 C16.58989484 18.74349123 17.90500287 20.11328177 19.21875 21.484375 C19.8698877 22.16145508 20.52102539 22.83853516 21.19189453 23.53613281 C23.75937021 26.2772511 26.1949156 29.12125945 28.61328125 31.99414062 C30.53112723 34.03154698 32.75107453 35.21478649 35.1484375 36.625 C35.29224854 37.20330566 35.43605957 37.78161133 35.58422852 38.37744141 C36.98441472 43.95516282 40.3629624 47.61240909 45.1484375 50.625 C52.48274557 52.31372966 60.25415105 51.56278962 67.7109375 51.25 C69.78960663 51.19978669 71.86839214 51.15416854 73.94726562 51.11328125 C79.01721607 51.00360518 84.08153935 50.83137156 89.1484375 50.625 C89.58542969 49.4184375 89.58542969 49.4184375 90.03125 48.1875 C91.38193136 45.08943366 92.19754482 45.01365538 95.1484375 43.625 C97.55032438 40.94861176 99.00729143 39.0484382 100.1484375 35.625 C101.46721766 34.9299884 102.80284876 34.26657085 104.1484375 33.625 C105.91445261 32.05882005 105.91445261 32.05882005 107.57421875 30.2109375 C108.20650391 29.53160156 108.83878906 28.85226563 109.49023438 28.15234375 C110.46573242 27.08693359 110.46573242 27.08693359 111.4609375 26 C112.09966797 25.31292969 112.73839844 24.62585938 113.39648438 23.91796875 C115.32752384 21.83236787 117.24168044 19.73281381 119.1484375 17.625 C120.13783325 16.53276123 120.13783325 16.53276123 121.1472168 15.41845703 C122.09141479 14.36053955 122.09141479 14.36053955 123.0546875 13.28125 C123.90450195 12.33088867 123.90450195 12.33088867 124.77148438 11.36132812 C126.42556927 9.2755388 127.20366779 7.09593616 128.1484375 4.625 C129.9609375 3.625 129.9609375 3.625 132.1484375 2.625 C132.8084375 1.7175 133.4684375 0.81 134.1484375 -0.125 C137.1484375 -2.375 137.1484375 -2.375 140.03125 -2.2890625 C145.50736056 -1.37857665 150.48261245 -0.48555004 155.1484375 2.625 C158.0449707 4.06823595 161.00658695 5.36737054 163.9609375 6.6875 C164.75564453 7.05166016 165.55035156 7.41582031 166.36914062 7.79101562 C170.63345209 9.69919801 174.44959493 11.13317268 179.1484375 11.625 C179.1484375 12.285 179.1484375 12.945 179.1484375 13.625 C181.61170462 15.2696674 181.61170462 15.2696674 184.1484375 16.625 C184.11085327 17.37953461 184.07326904 18.13406921 184.0345459 18.91146851 C183.67889626 26.0602816 183.32563516 33.209207 182.97498322 40.35826683 C182.79467502 44.03269263 182.6134789 47.70706995 182.43017578 51.38134766 C182.25295231 54.93444221 182.07816283 58.48764926 181.90498352 62.04094315 C181.80691947 64.04042849 181.70640572 66.03979322 181.60583496 68.03915405 C181.27326995 74.90798215 181.05379079 81.74796537 181.1484375 88.625 C181.77733383 88.74252625 182.40623016 88.86005249 183.05418396 88.98114014 C186.13012605 89.92681153 186.6252429 91.87023863 188.1484375 94.625 C190.81202383 97.6866911 193.71098216 100.51211416 196.5859375 103.375 C197.34970703 104.15488281 198.11347656 104.93476563 198.90039062 105.73828125 C199.64095703 106.47949219 200.38152344 107.22070312 201.14453125 107.984375 C201.81669678 108.65952148 202.4888623 109.33466797 203.18139648 110.03027344 C205.2528296 111.70963314 206.61059123 112.02435039 209.1484375 112.625 C209.5609375 113.470625 209.9734375 114.31625 210.3984375 115.1875 C211.2646875 116.3940625 211.2646875 116.3940625 212.1484375 117.625 C214.89611441 118.04215743 217.35051738 117.80551098 220.1484375 117.625 C220.4784375 117.955 220.8084375 118.285 221.1484375 118.625 C223.08416041 118.62997848 225.02010391 118.56077442 226.95336914 118.46313477 C228.19458023 118.40299698 229.43579132 118.34285919 230.71461487 118.28089905 C232.0792803 118.20951229 233.44393979 118.13801199 234.80859375 118.06640625 C236.19719727 117.99726134 237.58582379 117.92857695 238.97447205 117.8603363 C242.63587354 117.67916174 246.29692798 117.49170827 249.95794678 117.30297852 C253.6911773 117.11162934 257.42469998 116.92617441 261.15820312 116.74023438 C268.48858129 116.3742823 275.81860304 116.0017015 283.1484375 115.625 C288.93206375 126.22055261 294.39347129 136.62716984 298.3359375 148.0625 C298.72845703 149.13564453 299.12097656 150.20878906 299.52539062 151.31445312 C302.56360798 159.90212234 302.56360798 159.90212234 301.1484375 163.625 C299.7734375 165.4765625 299.7734375 165.4765625 298.1484375 167.25 C295.87626526 169.74874312 295.87626526 169.74874312 294.1484375 172.625 C293.5709375 172.7075 292.9934375 172.79 292.3984375 172.875 C288.85952776 174.05463658 287.34374744 176.71769765 285.1484375 179.625 C284.8184375 180.285 284.4884375 180.945 284.1484375 181.625 C283.5709375 181.7075 282.9934375 181.79 282.3984375 181.875 C277.98425082 183.34639556 275.63692574 187.89226764 273.1484375 191.625 C272.5503125 191.728125 271.9521875 191.83125 271.3359375 191.9375 C267.81665098 193.04356148 266.31308188 195.7583088 264.1484375 198.625 C263.8184375 199.285 263.4884375 199.945 263.1484375 200.625 C262.5709375 200.728125 261.9934375 200.83125 261.3984375 200.9375 C257.94331486 201.99323192 256.42320556 203.85711015 254.1484375 206.625 C253.44652558 210.07524001 253.44652558 210.07524001 253.625 213.8828125 C253.6290686 214.5797673 253.63313721 215.27672211 253.6373291 215.99479675 C253.65722469 218.24770593 253.71370314 220.4978231 253.7734375 222.75 C253.79947134 224.2944911 253.82404451 225.83900751 253.84716797 227.38354492 C253.89781825 230.41985511 253.96519328 233.45509373 254.046875 236.49072266 C254.13897882 239.96694722 254.17038461 243.44043167 254.1796875 246.91796875 C254.20786889 248.59120033 254.2387883 250.26438986 254.2734375 251.9375 C254.26884521 253.03505615 254.26884521 253.03505615 254.26416016 254.15478516 C254.37232451 256.90136356 254.64501004 259.02138322 256.43652344 261.16943359 C258.87788055 263.29297643 261.07926842 264.60194364 264.1484375 265.625 C264.4371875 266.223125 264.7259375 266.82125 265.0234375 267.4375 C266.83811537 270.96604031 269.76725789 272.99360361 273.3359375 274.625 C275.67659847 275.91639915 275.96628117 277.26068735 277.1484375 279.625 C279.82482574 282.02688688 281.7249993 283.48385393 285.1484375 284.625 C285.4371875 285.223125 285.7259375 285.82125 286.0234375 286.4375 C288.01284736 290.30579694 291.09880923 292.27512391 295.1484375 293.625 C295.81510417 294.95833333 296.48177083 296.29166667 297.1484375 297.625 C298.0559375 298.346875 298.9634375 299.06875 299.8984375 299.8125 C302.1484375 302.625 302.1484375 302.625 302.0559082 304.5168457 C300.58139 310.36662788 298.73668534 315.98944204 296.5859375 321.625 C296.14024414 322.85283203 296.14024414 322.85283203 295.68554688 324.10546875 C292.31051537 333.01124051 287.6909761 341.27529403 283.1484375 349.625 C282.02995926 349.52199081 282.02995926 349.52199081 280.8888855 349.41690063 C273.80446518 348.77800616 266.71866838 348.2127328 259.62241936 347.72617531 C255.97495639 347.47357447 252.3339232 347.19454712 248.69384766 346.85058594 C231.76909303 344.54556686 231.76909303 344.54556686 216.27832031 349.42871094 C212.60389797 352.73188521 209.87342703 356.53444368 207.1484375 360.625 C205.91196638 362.10095105 204.6550705 363.56049525 203.36328125 364.98828125 C202.85007324 365.59623535 202.33686523 366.20418945 201.80810547 366.83056641 C199.85127576 368.94629137 197.73328978 370.7516162 195.52734375 372.60546875 C186.01221673 380.33253675 186.01221673 380.33253675 180.91015625 391.0234375 C180.69660506 395.36409751 181.20849812 399.62555064 181.74169922 403.9296875 C182.56206889 411.38293804 182.90018874 418.87486636 183.29772949 426.36056519 C183.45953559 429.16321752 183.6627338 431.96055176 183.87207031 434.76000977 C183.98216678 436.50790963 184.09125896 438.25587311 184.19921875 440.00390625 C184.26887344 440.81347778 184.33852814 441.62304932 184.41029358 442.45715332 C184.5324707 444.74047852 184.5324707 444.74047852 184.1484375 448.625 C180.80747555 452.08717754 177.11721951 453.99164372 172.57421875 455.453125 C168.39710196 456.8820133 164.34681078 458.55161046 160.2734375 460.25 C159.4896875 460.57484375 158.7059375 460.8996875 157.8984375 461.234375 C155.98100588 462.02940762 154.0646146 462.82694851 152.1484375 463.625 C152.1484375 464.285 152.1484375 464.945 152.1484375 465.625 C150.2336687 465.98928777 148.31651457 466.34105306 146.3984375 466.6875 C145.33109375 466.88472656 144.26375 467.08195312 143.1640625 467.28515625 C139.35848757 467.71402285 137.37677895 467.53718605 134.296875 465.25 C133.71164062 464.71375 133.12640625 464.1775 132.5234375 463.625 C130.02469438 461.35282776 130.02469438 461.35282776 127.1484375 459.625 C127.00680176 459.01881836 126.86516602 458.41263672 126.71923828 457.78808594 C126.01643583 455.12477125 124.92191681 453.98721168 123.015625 452.015625 C122.37367188 451.34273438 121.73171875 450.66984375 121.0703125 449.9765625 C120.39484375 449.28304688 119.719375 448.58953125 119.0234375 447.875 C105.21371854 433.51944235 105.21371854 433.51944235 102.34643555 428.42041016 C100.37380525 426.0763595 99.29473866 425.65113067 96.23010254 425.10375977 C92.36470329 424.92837017 88.52601253 424.950185 84.66015625 425.0390625 C83.23242478 425.05026138 81.80467017 425.05879831 80.37690735 425.06478882 C76.62966595 425.08763401 72.88383308 425.14651586 69.137146 425.2130127 C65.30972344 425.27453083 61.48207194 425.3018239 57.65429688 425.33203125 C50.15170349 425.39626689 42.65026828 425.49858961 35.1484375 425.625 C35.02156052 426.26361969 34.89468353 426.90223938 34.76396179 427.56021118 C34.1484375 429.625 34.1484375 429.625 32.30004883 430.66162109 C31.59001709 430.97953613 30.87998535 431.29745117 30.1484375 431.625 C28.38242239 433.19117995 28.38242239 433.19117995 26.72265625 435.0390625 C26.09037109 435.71839844 25.45808594 436.39773438 24.80664062 437.09765625 C24.15630859 437.80792969 23.50597656 438.51820313 22.8359375 439.25 C22.19720703 439.93707031 21.55847656 440.62414062 20.90039062 441.33203125 C18.96935116 443.41763213 17.05519456 445.51718619 15.1484375 447.625 C14.48884033 448.35315918 13.82924316 449.08131836 13.1496582 449.83154297 C12.52019287 450.53682129 11.89072754 451.24209961 11.2421875 451.96875 C10.67564453 452.60232422 10.10910156 453.23589844 9.52539062 453.88867188 C7.87130573 455.9744612 7.09320721 458.15406384 6.1484375 460.625 C4.3359375 461.625 4.3359375 461.625 2.1484375 462.625 C1.4884375 463.511875 0.8284375 464.39875 0.1484375 465.3125 C-4.10916898 468.594405 -7.24452929 467.6852564 -12.40234375 467.01953125 C-13.61470703 466.82423828 -13.61470703 466.82423828 -14.8515625 466.625 C-14.8515625 465.965 -14.8515625 465.305 -14.8515625 464.625 C-18.05873428 463.33043613 -21.26750153 462.03987291 -24.4765625 460.75 C-25.38019531 460.38519531 -26.28382813 460.02039063 -27.21484375 459.64453125 C-31.7249569 457.83390188 -36.22195448 456.11230714 -40.8515625 454.625 C-44.37708511 453.12932374 -47.18028841 451.3931923 -49.8515625 448.625 C-50.15756015 445.52981334 -50.16526307 443.05876393 -49.90234375 440.00390625 C-49.84978928 439.15608582 -49.7972348 438.30826538 -49.74308777 437.43475342 C-49.62864108 435.6226757 -49.503156 433.81126751 -49.36767578 432.00064087 C-49.16318834 429.17542255 -49.00460159 426.35105889 -48.859375 423.5222168 C-48.0652487 408.48152346 -48.0652487 408.48152346 -46.92578125 401.015625 C-46.04528538 394.19912468 -45.81641148 389.47081007 -49.95507812 383.68359375 C-55.75662933 376.65681742 -63.68667038 367.29905274 -72.05175781 363.6706543 C-73.8515625 362.625 -73.8515625 362.625 -74.66966248 360.42129517 C-77.05907568 354.76810586 -81.61259878 349.84644791 -86.8515625 346.625 C-91.84515986 345.37406617 -96.39379379 345.72716197 -101.48828125 346.20703125 C-102.86229978 346.29507832 -104.23665735 346.37797011 -105.61128235 346.45597839 C-109.19513501 346.6730219 -112.77011404 346.95887396 -116.34771729 347.26037598 C-120.01219548 347.55657172 -123.68081678 347.78603449 -127.34960938 348.02148438 C-134.52254995 348.49152373 -141.68742463 349.03448189 -148.8515625 349.625 C-154.63518875 339.02944739 -160.09659629 328.62283016 -164.0390625 317.1875 C-164.43158203 316.11435547 -164.82410156 315.04121094 -165.22851562 313.93554688 C-168.3019448 305.24834971 -168.3019448 305.24834971 -166.8515625 301.625 C-165.23029575 299.58802383 -163.56296719 297.58685416 -161.8515625 295.625 C-161.1915625 294.635 -160.5315625 293.645 -159.8515625 292.625 C-159.2534375 292.521875 -158.6553125 292.41875 -158.0390625 292.3125 C-154.51977598 291.20643852 -153.01620688 288.4916912 -150.8515625 285.625 C-150.5215625 284.965 -150.1915625 284.305 -149.8515625 283.625 C-149.2740625 283.5425 -148.6965625 283.46 -148.1015625 283.375 C-143.68737582 281.90360444 -141.34005074 277.35773236 -138.8515625 273.625 C-138.2534375 273.521875 -137.6553125 273.41875 -137.0390625 273.3125 C-133.51977598 272.20643852 -132.01620688 269.4916912 -129.8515625 266.625 C-129.5215625 265.965 -129.1915625 265.305 -128.8515625 264.625 C-128.2534375 264.50125 -127.6553125 264.3775 -127.0390625 264.25 C-123.95482751 263.36879 -122.83232053 262.15259307 -120.8515625 259.625 C-120.3661028 256.95497165 -120.1506805 254.6859944 -120.1015625 252 C-120.07771484 251.20891846 -120.05386719 250.41783691 -120.02929688 249.6027832 C-119.98127089 247.73851743 -119.94450746 245.87394396 -119.91601562 244.00927734 C-119.86831406 241.50458397 -119.79936409 239.00560076 -119.70898438 236.50244141 C-119.5727855 232.70792606 -119.4768317 228.91397152 -119.40368652 225.11773682 C-119.3690775 223.58711842 -119.32302551 222.05671387 -119.26525879 220.52679443 C-118.66933774 212.06276642 -118.66933774 212.06276642 -121.33984375 204.31884766 C-124.05801029 201.91183965 -126.40980881 200.77225123 -129.8515625 199.625 C-130.1403125 199.026875 -130.4290625 198.42875 -130.7265625 197.8125 C-132.54124037 194.28395969 -135.47038289 192.25639639 -139.0390625 190.625 C-141.37972347 189.33360085 -141.66940617 187.98931265 -142.8515625 185.625 C-145.52795074 183.22311312 -147.4281243 181.76614607 -150.8515625 180.625 C-151.1403125 180.026875 -151.4290625 179.42875 -151.7265625 178.8125 C-153.54124037 175.28395969 -156.47038289 173.25639639 -160.0390625 171.625 C-162.38486191 170.33076584 -162.72461585 169.01976163 -163.8515625 166.625 C-164.5940625 166.068125 -165.3365625 165.51125 -166.1015625 164.9375 C-167.8515625 162.625 -167.8515625 162.625 -167.71020508 160.78198242 C-166.28690663 154.89941141 -164.44645407 149.27796639 -162.2890625 143.625 C-161.99193359 142.80644531 -161.69480469 141.98789063 -161.38867188 141.14453125 C-157.95450345 132.08271358 -153.49565634 124.39717726 -148.8515625 115.625 C-128.0615625 116.615 -107.2715625 117.605 -85.8515625 118.625 C-85.8515625 118.295 -85.8515625 117.965 -85.8515625 117.625 C-83.2115625 117.625 -80.5715625 117.625 -77.8515625 117.625 C-77.6040625 117.00625 -77.3565625 116.3875 -77.1015625 115.75 C-75.60277257 113.20205712 -74.46601415 112.88381005 -71.8515625 111.625 C-67.12303589 107.8815831 -62.83064779 103.72877535 -58.5390625 99.5 C-58.01119141 98.98518066 -57.48332031 98.47036133 -56.93945312 97.93994141 C-54.83599022 95.84122826 -53.03959324 94.01700754 -51.74609375 91.3203125 C-51.45089844 90.76085937 -51.15570313 90.20140625 -50.8515625 89.625 C-48.7956543 89.01904297 -48.7956543 89.01904297 -46.8515625 88.625 C-46.96956146 84.31228198 -47.09737779 79.99989653 -47.2265625 75.6875 C-47.24535461 75.01826508 -47.26414673 74.34903015 -47.2835083 73.65951538 C-47.53985428 64.61912701 -47.95420735 55.60343895 -48.5390625 46.578125 C-48.7105702 43.78464584 -48.88045169 40.99107129 -49.05010986 38.19747925 C-49.16764434 36.35906677 -49.29454427 34.52122886 -49.43084717 32.68411255 C-49.62283162 30.08850505 -49.78308707 27.49260518 -49.9375 24.89453125 C-50.00388672 24.11664246 -50.07027344 23.33875366 -50.13867188 22.53729248 C-50.25146484 20.35083008 -50.25146484 20.35083008 -49.8515625 16.625 C-46.52170355 13.20819511 -42.87973697 11.27657101 -38.37109375 9.828125 C-33.66951475 8.22092596 -29.08304007 6.35967639 -24.4765625 4.5 C-23.54972656 4.12746094 -22.62289062 3.75492188 -21.66796875 3.37109375 C-19.39519621 2.45729861 -17.12308667 1.54189293 -14.8515625 0.625 C-14.8515625 -0.035 -14.8515625 -0.695 -14.8515625 -1.375 C-13.43612835 -1.57158808 -12.01912219 -1.75687546 -10.6015625 -1.9375 C-9.81265625 -2.04191406 -9.02375 -2.14632813 -8.2109375 -2.25390625 C-4.81448675 -2.4282274 -2.75051334 -2.04257531 0 0 Z M21.1484375 140.625 C17.8389605 142.889379 15.12066432 144.05753903 11.1484375 144.625 C11.1484375 145.285 11.1484375 145.945 11.1484375 146.625 C10.3646875 146.91375 9.5809375 147.2025 8.7734375 147.5 C6.05172118 148.47412254 6.05172118 148.47412254 4.1484375 150.625 C3.189375 151.058125 3.189375 151.058125 2.2109375 151.5 C-0.30181263 152.87059098 -1.22084821 154.27677143 -2.8515625 156.625 C-7.34538966 162.38631687 -7.34538966 162.38631687 -9.7734375 163.53125 C-22.374695 170.16349079 -29.02250142 190.46129585 -33.13525391 203.23632812 C-41.03363119 229.57502048 -37.57813006 258.67255027 -24.67578125 282.84375 C-20.00295693 291.1224557 -14.68011449 300.43329254 -5.8515625 304.625 C-4.81590465 305.93082947 -3.82029282 307.26877755 -2.8515625 308.625 C0.3110875 312.07002693 0.3110875 312.07002693 4.1484375 314.625 C5.1384375 315.615 5.1384375 315.615 6.1484375 316.625 C6.9940625 316.934375 7.8396875 317.24375 8.7109375 317.5625 C9.5153125 317.913125 10.3196875 318.26375 11.1484375 318.625 C11.4784375 319.615 11.8084375 320.605 12.1484375 321.625 C12.8290625 321.7075 13.5096875 321.79 14.2109375 321.875 C18.60031156 322.99569125 22.42328154 325.14348793 25.86328125 328.09765625 C29.05291379 330.22953031 32.4926644 331.16146649 36.1484375 332.1875 C37.29445435 332.5117395 37.29445435 332.5117395 38.46362305 332.8425293 C62.36454128 339.45053372 87.55456676 338.23141365 110.1484375 327.625 C111.9184672 326.13852438 111.9184672 326.13852438 113.1484375 324.625 C116.4579145 322.360621 119.17621068 321.19246097 123.1484375 320.625 C123.1484375 319.965 123.1484375 319.305 123.1484375 318.625 C124.3240625 318.191875 124.3240625 318.191875 125.5234375 317.75 C128.24515382 316.77587746 128.24515382 316.77587746 130.1484375 314.625 C131.1075 314.191875 131.1075 314.191875 132.0859375 313.75 C134.59868763 312.37940902 135.51772321 310.97322857 137.1484375 308.625 C141.64226466 302.86368313 141.64226466 302.86368313 144.0703125 301.71875 C156.67157 295.08650921 163.31937642 274.78870415 167.43212891 262.01367188 C175.33050619 235.67497952 171.87500506 206.57744973 158.97265625 182.40625 C154.27728661 174.08760142 148.9680845 164.8984372 140.1484375 160.625 C138.77361043 158.99239286 137.44196083 157.32274938 136.1484375 155.625 C133.44409765 152.72478157 133.44409765 152.72478157 130.1484375 150.625 C129.1584375 149.635 129.1584375 149.635 128.1484375 148.625 C127.3028125 148.315625 126.4571875 148.00625 125.5859375 147.6875 C124.379375 147.1615625 124.379375 147.1615625 123.1484375 146.625 C122.8184375 145.635 122.4884375 144.645 122.1484375 143.625 C121.4678125 143.5425 120.7871875 143.46 120.0859375 143.375 C115.67873393 142.24975654 111.87884471 140.08116857 108.3984375 137.15234375 C105.38135025 135.10428626 102.16866255 134.10645753 98.7109375 133.0625 C97.99647461 132.84634033 97.28201172 132.63018066 96.54589844 132.4074707 C76.76247727 126.61047848 36.79527613 123.29671005 21.1484375 140.625 Z M38.1484375 423.625 C38.1484375 423.955 38.1484375 424.285 38.1484375 424.625 C57.2884375 424.625 76.4284375 424.625 96.1484375 424.625 C96.1484375 424.295 96.1484375 423.965 96.1484375 423.625 C77.0084375 423.625 57.8684375 423.625 38.1484375 423.625 Z " fill="#E85E62" transform="translate(188.8515625,23.375)"/>
<path d="M0 0 C0.33 0 0.66 0 1 0 C1 9.9 1 19.8 1 30 C0.67 30 0.34 30 0 30 C0 20.1 0 10.2 0 0 Z " fill="#D2686B" transform="translate(68,232)"/>
<path d="M0 0 C0.33 0 0.66 0 1 0 C1 9.9 1 19.8 1 30 C0.67 30 0.34 30 0 30 C0 20.1 0 10.2 0 0 Z " fill="#D3676B" transform="translate(443,232)"/>
<path d="M0 0 C5.94 0 11.88 0 18 0 C18 0.33 18 0.66 18 1 C12.06 1 6.12 1 0 1 C0 0.67 0 0.34 0 0 Z " fill="#D86567" transform="translate(247,358)"/>
<path d="M0 0 C0.33 0 0.66 0 1 0 C1 5.94 1 11.88 1 18 C0.67 18 0.34 18 0 18 C0 12.06 0 6.12 0 0 Z " fill="#D76568" transform="translate(153,247)"/>
<path d="M0 0 C0.33 0 0.66 0 1 0 C1 5.94 1 11.88 1 18 C0.67 18 0.34 18 0 18 C0 12.06 0 6.12 0 0 Z " fill="#D76668" transform="translate(358,247)"/>
<path d="M0 0 C5.94 0 11.88 0 18 0 C18 0.33 18 0.66 18 1 C12.06 1 6.12 1 0 1 C0 0.67 0 0.34 0 0 Z " fill="#D96568" transform="translate(247,153)"/>
<path d="M0 0 C0.33 0 0.66 0 1 0 C1 5.61 1 11.22 1 17 C0.67 17 0.34 17 0 17 C0 11.39 0 5.78 0 0 Z " fill="#D3676A" transform="translate(373,451)"/>
<path d="M0 0 C0.33 0 0.66 0 1 0 C1 5.61 1 11.22 1 17 C0.67 17 0.34 17 0 17 C0 11.39 0 5.78 0 0 Z " fill="#D3686B" transform="translate(138,451)"/>
<path d="M0 0 C5.61 0 11.22 0 17 0 C17 0.33 17 0.66 17 1 C11.39 1 5.78 1 0 1 C0 0.67 0 0.34 0 0 Z " fill="#D3676A" transform="translate(44,373)"/>
<path d="M0 0 C5.61 0 11.22 0 17 0 C17 0.33 17 0.66 17 1 C11.39 1 5.78 1 0 1 C0 0.67 0 0.34 0 0 Z " fill="#E85E63" transform="translate(63,372)"/>
<path d="M0 0 C5.61 0 11.22 0 17 0 C17 0.33 17 0.66 17 1 C11.39 1 5.78 1 0 1 C0 0.67 0 0.34 0 0 Z " fill="#D4676A" transform="translate(412,371)"/>
<path d="M0 0 C5.61 0 11.22 0 17 0 C17 0.33 17 0.66 17 1 C11.39 1 5.78 1 0 1 C0 0.67 0 0.34 0 0 Z " fill="#D56769" transform="translate(412,140)"/>
<path d="M0 0 C5.61 0 11.22 0 17 0 C17 0.33 17 0.66 17 1 C11.39 1 5.78 1 0 1 C0 0.67 0 0.34 0 0 Z " fill="#E65F62" transform="translate(63,139)"/>
<path d="M0 0 C5.61 0 11.22 0 17 0 C17 0.33 17 0.66 17 1 C11.39 1 5.78 1 0 1 C0 0.67 0 0.34 0 0 Z " fill="#D2676A" transform="translate(44,138)"/>
<path d="M0 0 C0.33 0 0.66 0 1 0 C1 5.61 1 11.22 1 17 C0.67 17 0.34 17 0 17 C0 11.39 0 5.78 0 0 Z " fill="#D2676A" transform="translate(138,44)"/>
<path d="M0 0 C0.33 0 0.66 0 1 0 C1 5.61 1 11.22 1 17 C0.67 17 0.34 17 0 17 C0 11.39 0 5.78 0 0 Z " fill="#D2676A" transform="translate(373,44)"/>
<path d="M0 0 C0.33 0 0.66 0 1 0 C1 5.28 1 10.56 1 16 C0.67 16 0.34 16 0 16 C0 10.72 0 5.44 0 0 Z " fill="#E85E62" transform="translate(372,433)"/>
<path d="M0 0 C0.33 0 0.66 0 1 0 C1 5.28 1 10.56 1 16 C0.67 16 0.34 16 0 16 C0 10.72 0 5.44 0 0 Z " fill="#E75E62" transform="translate(139,433)"/>
<path d="M0 0 C5.28 0 10.56 0 16 0 C16 0.33 16 0.66 16 1 C10.72 1 5.44 1 0 1 C0 0.67 0 0.34 0 0 Z " fill="#D2676A" transform="translate(452,373)"/>
<path d="M0 0 C5.28 0 10.56 0 16 0 C16 0.33 16 0.66 16 1 C10.72 1 5.44 1 0 1 C0 0.67 0 0.34 0 0 Z " fill="#E85F62" transform="translate(433,372)"/>
<path d="M0 0 C5.28 0 10.56 0 16 0 C16 0.33 16 0.66 16 1 C10.72 1 5.44 1 0 1 C0 0.67 0 0.34 0 0 Z " fill="#D66669" transform="translate(84,371)"/>
<path d="M0 0 C5.28 0 10.56 0 16 0 C16 0.33 16 0.66 16 1 C10.72 1 5.44 1 0 1 C0 0.67 0 0.34 0 0 Z " fill="#D5666A" transform="translate(84,140)"/>
<path d="M0 0 C5.28 0 10.56 0 16 0 C16 0.33 16 0.66 16 1 C10.72 1 5.44 1 0 1 C0 0.67 0 0.34 0 0 Z " fill="#E85F62" transform="translate(433,139)"/>
<path d="M0 0 C5.28 0 10.56 0 16 0 C16 0.33 16 0.66 16 1 C10.72 1 5.44 1 0 1 C0 0.67 0 0.34 0 0 Z " fill="#D3676A" transform="translate(452,138)"/>
<path d="M0 0 C0.33 0 0.66 0 1 0 C1 5.28 1 10.56 1 16 C0.67 16 0.34 16 0 16 C0 10.72 0 5.44 0 0 Z " fill="#D4676A" transform="translate(140,84)"/>
<path d="M0 0 C0.33 0 0.66 0 1 0 C1 5.28 1 10.56 1 16 C0.67 16 0.34 16 0 16 C0 10.72 0 5.44 0 0 Z " fill="#D3676A" transform="translate(371,84)"/>
<path d="M0 0 C0.33 0 0.66 0 1 0 C1 5.28 1 10.56 1 16 C0.67 16 0.34 16 0 16 C0 10.72 0 5.44 0 0 Z " fill="#E75E61" transform="translate(372,63)"/>
<path d="M0 0 C0.33 0 0.66 0 1 0 C1 5.28 1 10.56 1 16 C0.67 16 0.34 16 0 16 C0 10.72 0 5.44 0 0 Z " fill="#E85F62" transform="translate(139,63)"/>
<path d="M0 0 C0.33 0 0.66 0 1 0 C1 4.95 1 9.9 1 15 C0.67 15 0.34 15 0 15 C0 10.05 0 5.1 0 0 Z " fill="#D56769" transform="translate(140,413)"/>
<path d="M0 0 C0.33 0 0.66 0 1 0 C1 4.95 1 9.9 1 15 C0.67 15 0.34 15 0 15 C0 10.05 0 5.1 0 0 Z " fill="#D4676A" transform="translate(371,413)"/>
<path d="M0 0 C0.33 0 0.66 0 1 0 C1 4.95 1 9.9 1 15 C0.67 15 0.34 15 0 15 C0 10.05 0 5.1 0 0 Z " fill="#E65F63" transform="translate(444,268)"/>
<path d="M0 0 C0.33 0 0.66 0 1 0 C1 4.95 1 9.9 1 15 C0.67 15 0.34 15 0 15 C0 10.05 0 5.1 0 0 Z " fill="#E75F63" transform="translate(67,268)"/>
<path d="M0 0 C0.33 0 0.66 0 1 0 C1 2.97 1 5.94 1 9 C0.67 9 0.34 9 0 9 C0 6.03 0 3.06 0 0 Z " fill="#E85F62" transform="translate(370,103)"/>
<path d="M0 0 C0.33 0 0.66 0 1 0 C1 2.97 1 5.94 1 9 C0.67 9 0.34 9 0 9 C0 6.03 0 3.06 0 0 Z " fill="#E85E63" transform="translate(141,103)"/>
<path d="M0 0 C0 0.99 0 1.98 0 3 C-0.99 3.495 -0.99 3.495 -2 4 C-1.34 2.68 -0.68 1.36 0 0 Z " fill="#E65F63" transform="translate(398,382)"/>
<path d="M0 0 C1.98 0 3.96 0 6 0 C6 0.33 6 0.66 6 1 C4.02 1 2.04 1 0 1 C0 0.67 0 0.34 0 0 Z " fill="#E75F62" transform="translate(267,357)"/>
<path d="M0 0 C1.98 0 3.96 0 6 0 C6 0.33 6 0.66 6 1 C4.02 1 2.04 1 0 1 C0 0.67 0 0.34 0 0 Z " fill="#E85E61" transform="translate(239,357)"/>
<path d="M0 0 C0.33 0 0.66 0 1 0 C1 1.98 1 3.96 1 6 C0.67 6 0.34 6 0 6 C0 4.02 0 2.04 0 0 Z " fill="#E75F62" transform="translate(357,267)"/>
<path d="M0 0 C0.33 0 0.66 0 1 0 C1 1.98 1 3.96 1 6 C0.67 6 0.34 6 0 6 C0 4.02 0 2.04 0 0 Z " fill="#E65F62" transform="translate(154,267)"/>
<path d="M0 0 C0.33 0 0.66 0 1 0 C1 1.98 1 3.96 1 6 C0.67 6 0.34 6 0 6 C0 4.02 0 2.04 0 0 Z " fill="#E95E61" transform="translate(357,239)"/>
<path d="M0 0 C0.33 0 0.66 0 1 0 C1 1.98 1 3.96 1 6 C0.67 6 0.34 6 0 6 C0 4.02 0 2.04 0 0 Z " fill="#E85F63" transform="translate(154,239)"/>
<path d="M0 0 C1.98 0 3.96 0 6 0 C6 0.33 6 0.66 6 1 C4.02 1 2.04 1 0 1 C0 0.67 0 0.34 0 0 Z " fill="#E75F64" transform="translate(267,154)"/>
<path d="M0 0 C1.98 0 3.96 0 6 0 C6 0.33 6 0.66 6 1 C4.02 1 2.04 1 0 1 C0 0.67 0 0.34 0 0 Z " fill="#E86062" transform="translate(239,154)"/>
<path d="M0 0 C0.99 0.495 0.99 0.495 2 1 C1.67 1.66 1.34 2.32 1 3 C0.67 2.01 0.34 1.02 0 0 Z " fill="#E75E64" transform="translate(288,450)"/>
<path d="M0 0 C4 1 4 1 4 1 Z " fill="#D96769" transform="translate(274,356)"/>
<path d="M0 0 C4 1 4 1 4 1 Z " fill="#D66567" transform="translate(234,356)"/>
<path d="M0 0 C1 4 1 4 1 4 Z " fill="#E85F63" transform="translate(156,279)"/>
<path d="M0 0 C1 4 1 4 1 4 Z " fill="#D5666B" transform="translate(356,274)"/>
<path d="M0 0 C1 4 1 4 1 4 Z " fill="#D36769" transform="translate(155,274)"/>
<path d="M0 0 C1 4 1 4 1 4 Z " fill="#D56668" transform="translate(356,234)"/>
<path d="M0 0 C1 4 1 4 1 4 Z " fill="#D46669" transform="translate(155,234)"/>
<path d="M0 0 C1 4 1 4 1 4 Z " fill="#E85F62" transform="translate(156,229)"/>
<path d="M0 0 C4 1 4 1 4 1 Z " fill="#E85F63" transform="translate(279,156)"/>
<path d="M0 0 C4 1 4 1 4 1 Z " fill="#E85F62" transform="translate(229,156)"/>
<path d="M0 0 C4 1 4 1 4 1 Z " fill="#D76568" transform="translate(274,155)"/>
<path d="M0 0 C4 1 4 1 4 1 Z " fill="#D86669" transform="translate(234,155)"/>
<path d="M0 0 C3 1 3 1 3 1 Z " fill="#E25F64" transform="translate(326,492)"/>
<path d="M0 0 C3 1 3 1 3 1 Z " fill="#E46065" transform="translate(183,492)"/>
<path d="M0 0 C3 1 3 1 3 1 Z " fill="#DF6265" transform="translate(329,491)"/>
<path d="M0 0 C3 1 3 1 3 1 Z " fill="#DD6367" transform="translate(180,491)"/>
<path d="M0 0 C3 1 3 1 3 1 Z " fill="#E65F60" transform="translate(171,488)"/>
<path d="M0 0 C3 1 3 1 3 1 Z " fill="#DF6167" transform="translate(346,485)"/>
<path d="M0 0 C3 1 3 1 3 1 Z " fill="#E75F63" transform="translate(279,355)"/>
<path d="M0 0 C3 1 3 1 3 1 Z " fill="#E85F63" transform="translate(230,355)"/>
<path d="M0 0 C3 1 3 1 3 1 Z " fill="#DB6464" transform="translate(283,354)"/>
<path d="M0 0 C3 1 3 1 3 1 Z " fill="#DC6368" transform="translate(226,354)"/>
<path d="M0 0 C3 1 3 1 3 1 Z " fill="#E56165" transform="translate(217,351)"/>
<path d="" fill="#E06266" transform="translate(0,0)"/>
<path d="" fill="#DF6366" transform="translate(0,0)"/>
<path d="" fill="#DF6266" transform="translate(0,0)"/>
<path d="" fill="#E95D63" transform="translate(0,0)"/>
<path d="" fill="#E85C63" transform="translate(0,0)"/>
<path d="" fill="#DE6366" transform="translate(0,0)"/>
<path d="" fill="#DD6368" transform="translate(0,0)"/>
<path d="" fill="#E36064" transform="translate(0,0)"/>
<path d="" fill="#E15F62" transform="translate(0,0)"/>
<path d="" fill="#DD6468" transform="translate(0,0)"/>
<path d="" fill="#DB6467" transform="translate(0,0)"/>
<path d="" fill="#E95E62" transform="translate(0,0)"/>
<path d="" fill="#E85F62" transform="translate(0,0)"/>
<path d="" fill="#DB6467" transform="translate(0,0)"/>
<path d="" fill="#DC6466" transform="translate(0,0)"/>
<path d="" fill="#E46163" transform="translate(0,0)"/>
<path d="" fill="#E45F64" transform="translate(0,0)"/>
<path d="" fill="#DF6364" transform="translate(0,0)"/>
<path d="" fill="#DE6366" transform="translate(0,0)"/>
<path d="" fill="#E85F64" transform="translate(0,0)"/>
<path d="" fill="#E95F64" transform="translate(0,0)"/>
<path d="" fill="#DF6268" transform="translate(0,0)"/>
<path d="" fill="#DF6266" transform="translate(0,0)"/>
<path d="" fill="#E06366" transform="translate(0,0)"/>
<path d="" fill="#DF6468" transform="translate(0,0)"/>
<path d="M0 0 C3 1 3 1 3 1 Z " fill="#E36065" transform="translate(217,160)"/>
<path d="M0 0 C3 1 3 1 3 1 Z " fill="#DC656A" transform="translate(283,157)"/>
<path d="M0 0 C3 1 3 1 3 1 Z " fill="#DB6365" transform="translate(226,157)"/>
<path d="M0 0 C3 1 3 1 3 1 Z " fill="#DF6165" transform="translate(346,26)"/>
<path d="M0 0 C3 1 3 1 3 1 Z " fill="#DD645F" transform="translate(163,26)"/>
<path d="M0 0 C3 1 3 1 3 1 Z " fill="#E85E63" transform="translate(171,23)"/>
<path d="M0 0 C3 1 3 1 3 1 Z " fill="#E06266" transform="translate(329,20)"/>
<path d="M0 0 C3 1 3 1 3 1 Z " fill="#DD6466" transform="translate(180,20)"/>
<path d="M0 0 C3 1 3 1 3 1 Z " fill="#E26163" transform="translate(326,19)"/>
<path d="M0 0 C3 1 3 1 3 1 Z " fill="#E36164" transform="translate(183,19)"/>
<path d="M0 0 C2 1 2 1 2 1 Z " fill="#E75F62" transform="translate(333,490)"/>
<path d="M0 0 C2 1 2 1 2 1 Z " fill="#E95F62" transform="translate(177,490)"/>
<path d="M0 0 C2 1 2 1 2 1 Z " fill="#E26366" transform="translate(341,487)"/>
<path d="M0 0 C2 1 2 1 2 1 Z " fill="#E26265" transform="translate(169,487)"/>
<path d="M0 0 C2 1 2 1 2 1 Z " fill="#E35E64" transform="translate(344,486)"/>
<path d="M0 0 C2 1 2 1 2 1 Z " fill="#E36165" transform="translate(166,486)"/>
<path d="M0 0 C2 1 2 1 2 1 Z " fill="#DE6267" transform="translate(164,485)"/>
<path d="M0 0 C2 1 2 1 2 1 Z " fill="#E85E64" transform="translate(349,484)"/>
<path d="M0 0 C2 1 2 1 2 1 Z " fill="#E85F62" transform="translate(161,484)"/>
<path d="M0 0 C2 1 2 1 2 1 Z " fill="#E75F63" transform="translate(351,483)"/>
<path d="M0 0 C2 1 2 1 2 1 Z " fill="#E16265" transform="translate(159,483)"/>
<path d="M0 0 C2 1 2 1 2 1 Z " fill="#E56065" transform="translate(354,482)"/>
<path d="M0 0 C2 1 2 1 2 1 Z " fill="#E65E62" transform="translate(156,482)"/>
<path d="M0 0 C2 1 2 1 2 1 Z " fill="#E06265" transform="translate(356,481)"/>
<path d="M0 0 C2 1 2 1 2 1 Z " fill="#E46066" transform="translate(154,481)"/>
<path d="M0 0 C2 1 2 1 2 1 Z " fill="#E55F62" transform="translate(358,480)"/>
<path d="M0 0 C2 1 2 1 2 1 Z " fill="#E36163" transform="translate(152,480)"/>
<path d="M0 0 C2 1 2 1 2 1 Z " fill="#E36267" transform="translate(360,479)"/>
<path d="M0 0 C2 1 2 1 2 1 Z " fill="#E06265" transform="translate(150,479)"/>
<path d="M0 0 C2 1 2 1 2 1 Z " fill="#E85F64" transform="translate(362,478)"/>
<path d="M0 0 C2 1 2 1 2 1 Z " fill="#EA5F63" transform="translate(148,478)"/>
<path d="M0 0 C2 1 2 1 2 1 Z " fill="#E86163" transform="translate(368,475)"/>
<path d="M0 0 C2 1 2 1 2 1 Z " fill="#E65F63" transform="translate(142,475)"/>
<path d="M0 0 C2 1 2 1 2 1 Z " fill="#E75F61" transform="translate(370,474)"/>
<path d="M0 0 C2 1 2 1 2 1 Z " fill="#E65F60" transform="translate(140,474)"/>
<path d="" fill="#E85F63" transform="translate(0,0)"/>
<path d="" fill="#E85F62" transform="translate(0,0)"/>
<path d="" fill="#E85F62" transform="translate(0,0)"/>
<path d="" fill="#E96063" transform="translate(0,0)"/>
<path d="" fill="#E75F64" transform="translate(0,0)"/>
<path d="" fill="#E85F64" transform="translate(0,0)"/>
<path d="" fill="#E65F60" transform="translate(0,0)"/>
<path d="" fill="#E85F63" transform="translate(0,0)"/>
<path d="" fill="#E85F62" transform="translate(0,0)"/>
<path d="" fill="#E46063" transform="translate(0,0)"/>
<path d="" fill="#E95E61" transform="translate(0,0)"/>
<path d="" fill="#E65F62" transform="translate(0,0)"/>
<path d="" fill="#E95F62" transform="translate(0,0)"/>
<path d="" fill="#E16267" transform="translate(0,0)"/>
<path d="" fill="#E16265" transform="translate(0,0)"/>
<path d="" fill="#E66065" transform="translate(0,0)"/>
<path d="" fill="#E65F63" transform="translate(0,0)"/>
<path d="M0 0 C2 1 2 1 2 1 Z " fill="#E75F64" transform="translate(287,353)"/>
<path d="M0 0 C2 1 2 1 2 1 Z " fill="#E75E60" transform="translate(223,353)"/>
<path d="" fill="#E06165" transform="translate(0,0)"/>
<path d="M0 0 C2 1 2 1 2 1 Z " fill="#DB6469" transform="translate(290,352)"/>
<path d="M0 0 C2 1 2 1 2 1 Z " fill="#DC6466" transform="translate(220,352)"/>
<path d="" fill="#E16166" transform="translate(0,0)"/>
<path d="M0 0 C2 1 2 1 2 1 Z " fill="#E65F65" transform="translate(293,351)"/>
<path d="" fill="#E96063" transform="translate(0,0)"/>
<path d="M0 0 C2 1 2 1 2 1 Z " fill="#E56166" transform="translate(295,350)"/>
<path d="M0 0 C2 1 2 1 2 1 Z " fill="#E46164" transform="translate(215,350)"/>
<path d="" fill="#E76062" transform="translate(0,0)"/>
<path d="" fill="#E56061" transform="translate(0,0)"/>
<path d="" fill="#E66065" transform="translate(0,0)"/>
<path d="M0 0 C2 1 2 1 2 1 Z " fill="#E66062" transform="translate(309,343)"/>
<path d="M0 0 C2 1 2 1 2 1 Z " fill="#E75F62" transform="translate(201,343)"/>
<path d="" fill="#E16165" transform="translate(0,0)"/>
<path d="" fill="#DC6467" transform="translate(0,0)"/>
<path d="" fill="#DC6467" transform="translate(0,0)"/>
<path d="" fill="#E85D62" transform="translate(0,0)"/>
<path d="" fill="#E96063" transform="translate(0,0)"/>
<path d="" fill="#E46163" transform="translate(0,0)"/>
<path d="" fill="#E46063" transform="translate(0,0)"/>
<path d="" fill="#EA5E63" transform="translate(0,0)"/>
<path d="" fill="#E85F62" transform="translate(0,0)"/>
<path d="" fill="#E85F62" transform="translate(0,0)"/>
<path d="" fill="#E85F62" transform="translate(0,0)"/>
<path d="" fill="#E86064" transform="translate(0,0)"/>
<path d="" fill="#E75E63" transform="translate(0,0)"/>
<path d="" fill="#E46065" transform="translate(0,0)"/>
<path d="" fill="#E46064" transform="translate(0,0)"/>
<path d="" fill="#E95E62" transform="translate(0,0)"/>
<path d="" fill="#E85F63" transform="translate(0,0)"/>
<path d="" fill="#E16165" transform="translate(0,0)"/>
<path d="" fill="#E26267" transform="translate(0,0)"/>
<path d="" fill="#E85F62" transform="translate(0,0)"/>
<path d="" fill="#EA5E62" transform="translate(0,0)"/>
<path d="" fill="#E66163" transform="translate(0,0)"/>
<path d="" fill="#E46063" transform="translate(0,0)"/>
<path d="" fill="#E76061" transform="translate(0,0)"/>
<path d="" fill="#E75F62" transform="translate(0,0)"/>
<path d="" fill="#E85F62" transform="translate(0,0)"/>
<path d="" fill="#E95E63" transform="translate(0,0)"/>
<path d="" fill="#E65F63" transform="translate(0,0)"/>
<path d="" fill="#E56063" transform="translate(0,0)"/>
<path d="" fill="#E85E64" transform="translate(0,0)"/>
<path d="" fill="#E85E63" transform="translate(0,0)"/>
<path d="" fill="#E06066" transform="translate(0,0)"/>
<path d="" fill="#E26165" transform="translate(0,0)"/>
<path d="" fill="#E85F63" transform="translate(0,0)"/>
<path d="" fill="#E95F61" transform="translate(0,0)"/>
<path d="" fill="#E46064" transform="translate(0,0)"/>
<path d="" fill="#E85E63" transform="translate(0,0)"/>
<path d="" fill="#E76061" transform="translate(0,0)"/>
<path d="" fill="#EA5E62" transform="translate(0,0)"/>
<path d="" fill="#EA5E62" transform="translate(0,0)"/>
<path d="" fill="#E85F62" transform="translate(0,0)"/>
<path d="" fill="#E75F64" transform="translate(0,0)"/>
<path d="" fill="#E46063" transform="translate(0,0)"/>
<path d="" fill="#E46064" transform="translate(0,0)"/>
<path d="" fill="#E95F61" transform="translate(0,0)"/>
<path d="" fill="#E75E62" transform="translate(0,0)"/>
<path d="" fill="#DB6569" transform="translate(0,0)"/>
<path d="" fill="#DB6468" transform="translate(0,0)"/>
<path d="M0 0 C2 1 2 1 2 1 Z " fill="#E85F62" transform="translate(309,168)"/>
<path d="M0 0 C2 1 2 1 2 1 Z " fill="#E66062" transform="translate(201,168)"/>
<path d="" fill="#E55F64" transform="translate(0,0)"/>
<path d="" fill="#E55F64" transform="translate(0,0)"/>
<path d="" fill="#E75E61" transform="translate(0,0)"/>
<path d="" fill="#E85F63" transform="translate(0,0)"/>
<path d="M0 0 C2 1 2 1 2 1 Z " fill="#E46065" transform="translate(295,161)"/>
<path d="M0 0 C2 1 2 1 2 1 Z " fill="#E46167" transform="translate(215,161)"/>
<path d="" fill="#E16166" transform="translate(0,0)"/>
<path d="M0 0 C2 1 2 1 2 1 Z " fill="#E76062" transform="translate(293,160)"/>
<path d="" fill="#E16166" transform="translate(0,0)"/>
<path d="M0 0 C2 1 2 1 2 1 Z " fill="#DC6466" transform="translate(290,159)"/>
<path d="M0 0 C2 1 2 1 2 1 Z " fill="#DC6467" transform="translate(220,159)"/>
<path d="M0 0 C2 1 2 1 2 1 Z " fill="#E96064" transform="translate(287,158)"/>
<path d="M0 0 C2 1 2 1 2 1 Z " fill="#E85F63" transform="translate(223,158)"/>
<path d="" fill="#E56065" transform="translate(0,0)"/>
<path d="" fill="#E55F64" transform="translate(0,0)"/>
<path d="" fill="#E06164" transform="translate(0,0)"/>
<path d="" fill="#DF6164" transform="translate(0,0)"/>
<path d="" fill="#E85E63" transform="translate(0,0)"/>
<path d="" fill="#E85F62" transform="translate(0,0)"/>
<path d="" fill="#E75E64" transform="translate(0,0)"/>
<path d="" fill="#E65F63" transform="translate(0,0)"/>
<path d="" fill="#E95D63" transform="translate(0,0)"/>
<path d="" fill="#E65F64" transform="translate(0,0)"/>
<path d="" fill="#E85F64" transform="translate(0,0)"/>
<path d="" fill="#E85F62" transform="translate(0,0)"/>
<path d="" fill="#E96063" transform="translate(0,0)"/>
<path d="" fill="#E85F63" transform="translate(0,0)"/>
<path d="" fill="#E85F65" transform="translate(0,0)"/>
<path d="M0 0 C2 1 2 1 2 1 Z " fill="#E76062" transform="translate(370,37)"/>
<path d="M0 0 C2 1 2 1 2 1 Z " fill="#E65F63" transform="translate(140,37)"/>
<path d="M0 0 C2 1 2 1 2 1 Z " fill="#E76065" transform="translate(368,36)"/>
<path d="M0 0 C2 1 2 1 2 1 Z " fill="#E75F64" transform="translate(142,36)"/>
<path d="M0 0 C2 1 2 1 2 1 Z " fill="#E86065" transform="translate(362,33)"/>
<path d="M0 0 C2 1 2 1 2 1 Z " fill="#E96065" transform="translate(148,33)"/>
<path d="M0 0 C2 1 2 1 2 1 Z " fill="#E26265" transform="translate(360,32)"/>
<path d="M0 0 C2 1 2 1 2 1 Z " fill="#E36266" transform="translate(150,32)"/>
<path d="M0 0 C2 1 2 1 2 1 Z " fill="#E55F62" transform="translate(358,31)"/>
<path d="M0 0 C2 1 2 1 2 1 Z " fill="#E76064" transform="translate(152,31)"/>
<path d="M0 0 C2 1 2 1 2 1 Z " fill="#E16265" transform="translate(356,30)"/>
<path d="M0 0 C2 1 2 1 2 1 Z " fill="#E26368" transform="translate(154,30)"/>
<path d="M0 0 C2 1 2 1 2 1 Z " fill="#E55F60" transform="translate(354,29)"/>
<path d="M0 0 C2 1 2 1 2 1 Z " fill="#E56064" transform="translate(156,29)"/>
<path d="M0 0 C2 1 2 1 2 1 Z " fill="#E75F62" transform="translate(351,28)"/>
<path d="M0 0 C2 1 2 1 2 1 Z " fill="#E16264" transform="translate(159,28)"/>
<path d="M0 0 C2 1 2 1 2 1 Z " fill="#E85F62" transform="translate(349,27)"/>
<path d="M0 0 C2 1 2 1 2 1 Z " fill="#E85F62" transform="translate(161,27)"/>
<path d="M0 0 C2 1 2 1 2 1 Z " fill="#E56063" transform="translate(344,25)"/>
<path d="M0 0 C2 1 2 1 2 1 Z " fill="#E3615E" transform="translate(166,25)"/>
<path d="M0 0 C2 1 2 1 2 1 Z " fill="#E26367" transform="translate(341,24)"/>
<path d="M0 0 C2 1 2 1 2 1 Z " fill="#E26265" transform="translate(169,24)"/>
<path d="M0 0 C2 1 2 1 2 1 Z " fill="#DA6466" transform="translate(336,22)"/>
<path d="M0 0 C2 1 2 1 2 1 Z " fill="#E85F62" transform="translate(333,21)"/>
<path d="M0 0 C2 1 2 1 2 1 Z " fill="#E75E60" transform="translate(177,21)"/>
<path d="" fill="#E06469" transform="translate(0,0)"/>
<path d="" fill="#DD6368" transform="translate(0,0)"/>
<path d="" fill="#E96063" transform="translate(0,0)"/>
<path d="" fill="#E85F62" transform="translate(0,0)"/>
<path d="" fill="#EB5F63" transform="translate(0,0)"/>
<path d="" fill="#E96063" transform="translate(0,0)"/>
<path d="" fill="#EA5E62" transform="translate(0,0)"/>
<path d="" fill="#E85F62" transform="translate(0,0)"/>
<path d="" fill="#E85F62" transform="translate(0,0)"/>
<path d="" fill="#E85F62" transform="translate(0,0)"/>
<path d="" fill="#E85F62" transform="translate(0,0)"/>
<path d="" fill="#E85F62" transform="translate(0,0)"/>
<path d="" fill="#E85F64" transform="translate(0,0)"/>
<path d="" fill="#E85F62" transform="translate(0,0)"/>
<path d="" fill="#E85F64" transform="translate(0,0)"/>
<path d="" fill="#E75E61" transform="translate(0,0)"/>
<path d="" fill="#E75E61" transform="translate(0,0)"/>
<path d="" fill="#E65F64" transform="translate(0,0)"/>
<path d="" fill="#E66062" transform="translate(0,0)"/>
<path d="" fill="#E86065" transform="translate(0,0)"/>
<path d="" fill="#E85F62" transform="translate(0,0)"/>
<path d="" fill="#E96063" transform="translate(0,0)"/>
<path d="" fill="#E66062" transform="translate(0,0)"/>
<path d="" fill="#E65F64" transform="translate(0,0)"/>
<path d="" fill="#E85F62" transform="translate(0,0)"/>
<path d="" fill="#E85F64" transform="translate(0,0)"/>
<path d="" fill="#E86163" transform="translate(0,0)"/>
<path d="" fill="#E86065" transform="translate(0,0)"/>
<path d="" fill="#E66060" transform="translate(0,0)"/>
<path d="" fill="#E85F64" transform="translate(0,0)"/>
<path d="" fill="#E56064" transform="translate(0,0)"/>
<path d="" fill="#E46265" transform="translate(0,0)"/>
<path d="" fill="#D8676B" transform="translate(0,0)"/>
<path d="" fill="#D56569" transform="translate(0,0)"/>
<path d="" fill="#E85F62" transform="translate(0,0)"/>
<path d="" fill="#E85F62" transform="translate(0,0)"/>
<path d="" fill="#E85F62" transform="translate(0,0)"/>
<path d="" fill="#E85F62" transform="translate(0,0)"/>
<path d="" fill="#E85F62" transform="translate(0,0)"/>
<path d="" fill="#E66062" transform="translate(0,0)"/>
<path d="" fill="#E85F62" transform="translate(0,0)"/>
<path d="" fill="#E66062" transform="translate(0,0)"/>
<path d="" fill="#EA5E62" transform="translate(0,0)"/>
<path d="" fill="#E85F60" transform="translate(0,0)"/>
<path d="" fill="#E85F64" transform="translate(0,0)"/>
<path d="" fill="#E85F62" transform="translate(0,0)"/>
<path d="" fill="#E96065" transform="translate(0,0)"/>
<path d="" fill="#E85F62" transform="translate(0,0)"/>
<path d="" fill="#E75E61" transform="translate(0,0)"/>
<path d="" fill="#E85F62" transform="translate(0,0)"/>
<path d="" fill="#E85F62" transform="translate(0,0)"/>
<path d="" fill="#E85F62" transform="translate(0,0)"/>
<path d="" fill="#E66062" transform="translate(0,0)"/>
<path d="" fill="#E66062" transform="translate(0,0)"/>
<path d="" fill="#E85F62" transform="translate(0,0)"/>
<path d="" fill="#E66062" transform="translate(0,0)"/>
<path d="" fill="#E56162" transform="translate(0,0)"/>
<path d="" fill="#E56064" transform="translate(0,0)"/>
<path d="" fill="#E66062" transform="translate(0,0)"/>
<path d="" fill="#E66062" transform="translate(0,0)"/>
<path d="" fill="#E66062" transform="translate(0,0)"/>
<path d="" fill="#E66060" transform="translate(0,0)"/>
<path d="" fill="#E85F62" transform="translate(0,0)"/>
<path d="" fill="#E96063" transform="translate(0,0)"/>
<path d="" fill="#E86065" transform="translate(0,0)"/>
<path d="" fill="#E86065" transform="translate(0,0)"/>
<path d="" fill="#E96063" transform="translate(0,0)"/>
<path d="" fill="#E75E61" transform="translate(0,0)"/>
<path d="" fill="#E96266" transform="translate(0,0)"/>
<path d="" fill="#E85F64" transform="translate(0,0)"/>
<path d="" fill="#E55E63" transform="translate(0,0)"/>
<path d="" fill="#E96065" transform="translate(0,0)"/>
<path d="" fill="#E85F62" transform="translate(0,0)"/>
<path d="" fill="#E85F62" transform="translate(0,0)"/>
<path d="" fill="#E85F62" transform="translate(0,0)"/>
<path d="" fill="#E85F62" transform="translate(0,0)"/>
<path d="" fill="#E85F62" transform="translate(0,0)"/>
<path d="" fill="#E86065" transform="translate(0,0)"/>
<path d="" fill="#E96063" transform="translate(0,0)"/>
<path d="" fill="#E6615E" transform="translate(0,0)"/>
<path d="" fill="#E66062" transform="translate(0,0)"/>
<path d="" fill="#E8605C" transform="translate(0,0)"/>
<path d="" fill="#E85F64" transform="translate(0,0)"/>
<path d="" fill="#E85F62" transform="translate(0,0)"/>
<path d="" fill="#E85F64" transform="translate(0,0)"/>
<path d="" fill="#E85F62" transform="translate(0,0)"/>
<path d="" fill="#E96266" transform="translate(0,0)"/>
<path d="" fill="#E85F62" transform="translate(0,0)"/>
<path d="" fill="#E85F62" transform="translate(0,0)"/>
<path d="" fill="#E85F62" transform="translate(0,0)"/>
<path d="" fill="#E85F62" transform="translate(0,0)"/>
<path d="" fill="#E85F62" transform="translate(0,0)"/>
<path d="" fill="#E96063" transform="translate(0,0)"/>
<path d="" fill="#E96065" transform="translate(0,0)"/>
<path d="" fill="#E85F62" transform="translate(0,0)"/>
<path d="" fill="#E85F64" transform="translate(0,0)"/>
<path d="" fill="#E85F62" transform="translate(0,0)"/>
<path d="" fill="#E85F64" transform="translate(0,0)"/>
<path d="" fill="#E85F62" transform="translate(0,0)"/>
<path d="" fill="#E85F62" transform="translate(0,0)"/>
<path d="" fill="#E96063" transform="translate(0,0)"/>
<path d="" fill="#E96063" transform="translate(0,0)"/>
<path d="" fill="#E85F62" transform="translate(0,0)"/>
<path d="" fill="#E96063" transform="translate(0,0)"/>
<path d="" fill="#E85F62" transform="translate(0,0)"/>
<path d="" fill="#E85F62" transform="translate(0,0)"/>
<path d="" fill="#E85F62" transform="translate(0,0)"/>
<path d="" fill="#E96063" transform="translate(0,0)"/>
<path d="" fill="#E85F62" transform="translate(0,0)"/>
<path d="" fill="#E85F62" transform="translate(0,0)"/>
<path d="" fill="#E96065" transform="translate(0,0)"/>
<path d="" fill="#E85F62" transform="translate(0,0)"/>
<path d="" fill="#E65F64" transform="translate(0,0)"/>
<path d="" fill="#E96063" transform="translate(0,0)"/>
<path d="" fill="#E85F62" transform="translate(0,0)"/>
<path d="" fill="#E86065" transform="translate(0,0)"/>
<path d="" fill="#E65F64" transform="translate(0,0)"/>
<path d="" fill="#E96065" transform="translate(0,0)"/>
<path d="" fill="#E65F64" transform="translate(0,0)"/>
<path d="" fill="#E66062" transform="translate(0,0)"/>
<path d="" fill="#E65F64" transform="translate(0,0)"/>
<path d="" fill="#EA5E62" transform="translate(0,0)"/>
<path d="" fill="#E85E66" transform="translate(0,0)"/>
<path d="" fill="#E85F64" transform="translate(0,0)"/>
<path d="" fill="#E65F64" transform="translate(0,0)"/>
<path d="" fill="#EA6166" transform="translate(0,0)"/>
<path d="" fill="#E55F61" transform="translate(0,0)"/>
<path d="" fill="#E65F64" transform="translate(0,0)"/>
<path d="" fill="#E86163" transform="translate(0,0)"/>
<path d="" fill="#DA6367" transform="translate(0,0)"/>
<path d="" fill="#E85F62" transform="translate(0,0)"/>
<path d="" fill="#E85F62" transform="translate(0,0)"/>
<path d="" fill="#DD6464" transform="translate(0,0)"/>
<path d="" fill="#E66062" transform="translate(0,0)"/>
<path d="" fill="#E65F64" transform="translate(0,0)"/>
<path d="" fill="#E86163" transform="translate(0,0)"/>
<path d="" fill="#E65F64" transform="translate(0,0)"/>
<path d="" fill="#E66062" transform="translate(0,0)"/>
<path d="" fill="#E56064" transform="translate(0,0)"/>
<path d="" fill="#EA5E62" transform="translate(0,0)"/>
<path d="" fill="#E85F62" transform="translate(0,0)"/>
<path d="" fill="#E45F63" transform="translate(0,0)"/>
<path d="" fill="#E46265" transform="translate(0,0)"/>
<path d="" fill="#E85F62" transform="translate(0,0)"/>
<path d="" fill="#E66062" transform="translate(0,0)"/>
<path d="" fill="#E56162" transform="translate(0,0)"/>
<path d="" fill="#E36164" transform="translate(0,0)"/>
<path d="" fill="#E85F62" transform="translate(0,0)"/>
<path d="" fill="#E85F62" transform="translate(0,0)"/>
<path d="" fill="#E85F64" transform="translate(0,0)"/>
<path d="" fill="#E85F62" transform="translate(0,0)"/>
<path d="" fill="#E66062" transform="translate(0,0)"/>
<path d="" fill="#E85F62" transform="translate(0,0)"/>
<path d="" fill="#E65F64" transform="translate(0,0)"/>
<path d="" fill="#E85F62" transform="translate(0,0)"/>
<path d="" fill="#E96065" transform="translate(0,0)"/>
<path d="" fill="#E56064" transform="translate(0,0)"/>
<path d="" fill="#E56066" transform="translate(0,0)"/>
<path d="" fill="#DE6368" transform="translate(0,0)"/>
<path d="" fill="#DD6368" transform="translate(0,0)"/>
<path d="" fill="#E96065" transform="translate(0,0)"/>
<path d="" fill="#E65F64" transform="translate(0,0)"/>
<path d="" fill="#E66062" transform="translate(0,0)"/>
<path d="" fill="#E85F62" transform="translate(0,0)"/>
<path d="" fill="#EA5E62" transform="translate(0,0)"/>
<path d="" fill="#E66062" transform="translate(0,0)"/>
<path d="" fill="#E96063" transform="translate(0,0)"/>
<path d="" fill="#EA5E62" transform="translate(0,0)"/>
<path d="" fill="#EA5E60" transform="translate(0,0)"/>
<path d="" fill="#E56162" transform="translate(0,0)"/>
<path d="" fill="#E66263" transform="translate(0,0)"/>
<path d="" fill="#EB5F63" transform="translate(0,0)"/>
<path d="" fill="#E85F60" transform="translate(0,0)"/>
<path d="" fill="#E86161" transform="translate(0,0)"/>
<path d="" fill="#E66062" transform="translate(0,0)"/>
<path d="" fill="#E85F62" transform="translate(0,0)"/>
<path d="" fill="#EB5E60" transform="translate(0,0)"/>
<path d="" fill="#E36164" transform="translate(0,0)"/>
<path d="" fill="#EB5E5E" transform="translate(0,0)"/>
<path d="" fill="#E36164" transform="translate(0,0)"/>
<path d="" fill="#E85F60" transform="translate(0,0)"/>
<path d="" fill="#E66060" transform="translate(0,0)"/>
<path d="" fill="#E75E61" transform="translate(0,0)"/>
<path d="" fill="#EA5E62" transform="translate(0,0)"/>
<path d="" fill="#E85F62" transform="translate(0,0)"/>
<path d="" fill="#E85F62" transform="translate(0,0)"/>
<path d="" fill="#E85F64" transform="translate(0,0)"/>
<path d="" fill="#E86163" transform="translate(0,0)"/>
<path d="" fill="#E85F64" transform="translate(0,0)"/>
<path d="" fill="#E55E65" transform="translate(0,0)"/>
<path d="" fill="#E65F64" transform="translate(0,0)"/>
<path d="" fill="#E75E61" transform="translate(0,0)"/>
<path d="" fill="#E85F62" transform="translate(0,0)"/>
<path d="" fill="#E65F64" transform="translate(0,0)"/>
<path d="" fill="#E66062" transform="translate(0,0)"/>
<path d="" fill="#E85F62" transform="translate(0,0)"/>
<path d="" fill="#E85F64" transform="translate(0,0)"/>
<path d="" fill="#E55E63" transform="translate(0,0)"/>
<path d="" fill="#E85F62" transform="translate(0,0)"/>
<path d="" fill="#E66062" transform="translate(0,0)"/>
<path d="" fill="#E65F64" transform="translate(0,0)"/>
<path d="" fill="#E85F62" transform="translate(0,0)"/>
<path d="" fill="#E85D61" transform="translate(0,0)"/>
<path d="" fill="#E85F62" transform="translate(0,0)"/>
<path d="" fill="#E96065" transform="translate(0,0)"/>
<path d="" fill="#E75E61" transform="translate(0,0)"/>
<path d="" fill="#E96063" transform="translate(0,0)"/>
<path d="" fill="#E85F62" transform="translate(0,0)"/>
<path d="" fill="#E96063" transform="translate(0,0)"/>
<path d="" fill="#E75E61" transform="translate(0,0)"/>
<path d="" fill="#E66165" transform="translate(0,0)"/>
<path d="" fill="#E56064" transform="translate(0,0)"/>
<path d="" fill="#E96063" transform="translate(0,0)"/>
<path d="" fill="#E85F62" transform="translate(0,0)"/>
<path d="" fill="#E85F62" transform="translate(0,0)"/>
<path d="" fill="#E66062" transform="translate(0,0)"/>
<path d="" fill="#E85F62" transform="translate(0,0)"/>
<path d="" fill="#E65F66" transform="translate(0,0)"/>
<path d="" fill="#E85F62" transform="translate(0,0)"/>
<path d="" fill="#E85F62" transform="translate(0,0)"/>
<path d="" fill="#E75E61" transform="translate(0,0)"/>
<path d="" fill="#E85F62" transform="translate(0,0)"/>
<path d="" fill="#E36164" transform="translate(0,0)"/>
<path d="" fill="#E56064" transform="translate(0,0)"/>
<path d="" fill="#E85F62" transform="translate(0,0)"/>
<path d="" fill="#E66062" transform="translate(0,0)"/>
<path d="" fill="#E65F64" transform="translate(0,0)"/>
<path d="" fill="#E75E61" transform="translate(0,0)"/>
<path d="" fill="#E55F61" transform="translate(0,0)"/>
<path d="" fill="#E66062" transform="translate(0,0)"/>
<path d="" fill="#E66062" transform="translate(0,0)"/>
<path d="" fill="#E85F62" transform="translate(0,0)"/>
<path d="" fill="#E75E61" transform="translate(0,0)"/>
<path d="" fill="#E85F64" transform="translate(0,0)"/>
<path d="" fill="#E65F64" transform="translate(0,0)"/>
<path d="" fill="#EB5F63" transform="translate(0,0)"/>
<path d="" fill="#E55F61" transform="translate(0,0)"/>
<path d="" fill="#E86065" transform="translate(0,0)"/>
<path d="" fill="#E36164" transform="translate(0,0)"/>
<path d="" fill="#E66062" transform="translate(0,0)"/>
<path d="" fill="#E85F62" transform="translate(0,0)"/>
<path d="" fill="#E55F61" transform="translate(0,0)"/>
<path d="" fill="#E85F62" transform="translate(0,0)"/>
<path d="" fill="#E85F62" transform="translate(0,0)"/>
<path d="" fill="#E85F62" transform="translate(0,0)"/>
<path d="" fill="#EA5E62" transform="translate(0,0)"/>
<path d="" fill="#E96063" transform="translate(0,0)"/>
<path d="" fill="#E85F62" transform="translate(0,0)"/>
<path d="" fill="#E75D63" transform="translate(0,0)"/>
<path d="" fill="#E85F62" transform="translate(0,0)"/>
<path d="" fill="#E85F62" transform="translate(0,0)"/>
<path d="" fill="#E85F64" transform="translate(0,0)"/>
<path d="" fill="#EA6164" transform="translate(0,0)"/>
<path d="" fill="#E96065" transform="translate(0,0)"/>
<path d="" fill="#E75E61" transform="translate(0,0)"/>
<path d="" fill="#EA5E62" transform="translate(0,0)"/>
<path d="" fill="#E85F62" transform="translate(0,0)"/>
<path d="" fill="#E85D63" transform="translate(0,0)"/>
<path d="" fill="#E85F64" transform="translate(0,0)"/>
<path d="" fill="#E96065" transform="translate(0,0)"/>
<path d="" fill="#E85F64" transform="translate(0,0)"/>
<path d="" fill="#E85F64" transform="translate(0,0)"/>
<path d="" fill="#E75E61" transform="translate(0,0)"/>
<path d="" fill="#E65F66" transform="translate(0,0)"/>
<path d="" fill="#E45F63" transform="translate(0,0)"/>
<path d="" fill="#E85F64" transform="translate(0,0)"/>
<path d="" fill="#E75E61" transform="translate(0,0)"/>
<path d="" fill="#E65F64" transform="translate(0,0)"/>
<path d="" fill="#E65F64" transform="translate(0,0)"/>
<path d="" fill="#E96063" transform="translate(0,0)"/>
<path d="" fill="#E96063" transform="translate(0,0)"/>
<path d="" fill="#E45F63" transform="translate(0,0)"/>
<path d="" fill="#E86163" transform="translate(0,0)"/>
<path d="" fill="#E66062" transform="translate(0,0)"/>
<path d="" fill="#E96063" transform="translate(0,0)"/>
<path d="" fill="#E66062" transform="translate(0,0)"/>
<path d="" fill="#E66062" transform="translate(0,0)"/>
<path d="" fill="#EA5E62" transform="translate(0,0)"/>
<path d="" fill="#E36164" transform="translate(0,0)"/>
<path d="" fill="#E26061" transform="translate(0,0)"/>
<path d="" fill="#E85F64" transform="translate(0,0)"/>
<path d="" fill="#E85F62" transform="translate(0,0)"/>
<path d="" fill="#E85F64" transform="translate(0,0)"/>
<path d="" fill="#E85F64" transform="translate(0,0)"/>
<path d="" fill="#E85F62" transform="translate(0,0)"/>
<path d="" fill="#E85F62" transform="translate(0,0)"/>
<path d="" fill="#E85F62" transform="translate(0,0)"/>
<path d="" fill="#E85F64" transform="translate(0,0)"/>
<path d="" fill="#E96063" transform="translate(0,0)"/>
<path d="" fill="#E96065" transform="translate(0,0)"/>
<path d="" fill="#E45F63" transform="translate(0,0)"/>
<path d="" fill="#E56064" transform="translate(0,0)"/>
<path d="" fill="#E96063" transform="translate(0,0)"/>
<path d="" fill="#E85F62" transform="translate(0,0)"/>
<path d="" fill="#E96063" transform="translate(0,0)"/>
<path d="" fill="#E85F62" transform="translate(0,0)"/>
<path d="" fill="#E75E61" transform="translate(0,0)"/>
<path d="" fill="#E85F62" transform="translate(0,0)"/>
<path d="" fill="#E96063" transform="translate(0,0)"/>
<path d="" fill="#E66062" transform="translate(0,0)"/>
<path d="" fill="#E85F62" transform="translate(0,0)"/>
<path d="" fill="#E85F62" transform="translate(0,0)"/>
<path d="" fill="#E65F64" transform="translate(0,0)"/>
<path d="" fill="#E56064" transform="translate(0,0)"/>
<path d="" fill="#E85F62" transform="translate(0,0)"/>
<path d="" fill="#E85F62" transform="translate(0,0)"/>
<path d="" fill="#E96063" transform="translate(0,0)"/>
<path d="" fill="#E75D63" transform="translate(0,0)"/>
<path d="" fill="#E66062" transform="translate(0,0)"/>
<path d="" fill="#E65F64" transform="translate(0,0)"/>
<path d="" fill="#E85F62" transform="translate(0,0)"/>
<path d="" fill="#E96063" transform="translate(0,0)"/>
<path d="" fill="#E65F64" transform="translate(0,0)"/>
<path d="" fill="#E75D65" transform="translate(0,0)"/>
<path d="" fill="#E66062" transform="translate(0,0)"/>
<path d="" fill="#E65F64" transform="translate(0,0)"/>
<path d="" fill="#EA6166" transform="translate(0,0)"/>
<path d="" fill="#E85F64" transform="translate(0,0)"/>
<path d="" fill="#E85F62" transform="translate(0,0)"/>
<path d="" fill="#E66062" transform="translate(0,0)"/>
<path d="" fill="#E96063" transform="translate(0,0)"/>
<path d="" fill="#E85F62" transform="translate(0,0)"/>
<path d="" fill="#E85F62" transform="translate(0,0)"/>
<path d="" fill="#EC5F61" transform="translate(0,0)"/>
<path d="" fill="#E36164" transform="translate(0,0)"/>
<path d="" fill="#EB5E5E" transform="translate(0,0)"/>
<path d="" fill="#E36164" transform="translate(0,0)"/>
<path d="" fill="#E66060" transform="translate(0,0)"/>
<path d="" fill="#E85D61" transform="translate(0,0)"/>
<path d="" fill="#E96063" transform="translate(0,0)"/>
<path d="" fill="#E85F62" transform="translate(0,0)"/>
<path d="" fill="#E55F61" transform="translate(0,0)"/>
<path d="" fill="#E86065" transform="translate(0,0)"/>
<path d="" fill="#E65F64" transform="translate(0,0)"/>
<path d="" fill="#E96063" transform="translate(0,0)"/>
<path d="" fill="#E85F64" transform="translate(0,0)"/>
<path d="" fill="#E85F64" transform="translate(0,0)"/>
<path d="" fill="#E85F64" transform="translate(0,0)"/>
<path d="" fill="#E85F62" transform="translate(0,0)"/>
<path d="" fill="#E85F62" transform="translate(0,0)"/>
<path d="" fill="#E65F64" transform="translate(0,0)"/>
<path d="" fill="#E55E63" transform="translate(0,0)"/>
<path d="" fill="#E85F62" transform="translate(0,0)"/>
<path d="" fill="#DD6466" transform="translate(0,0)"/>
<path d="" fill="#DE6366" transform="translate(0,0)"/>
<path d="" fill="#E55E65" transform="translate(0,0)"/>
<path d="" fill="#E85F62" transform="translate(0,0)"/>
<path d="" fill="#E96065" transform="translate(0,0)"/>
<path d="" fill="#E85F64" transform="translate(0,0)"/>
<path d="" fill="#E66062" transform="translate(0,0)"/>
<path d="" fill="#E75D63" transform="translate(0,0)"/>
<path d="" fill="#E85F60" transform="translate(0,0)"/>
<path d="" fill="#E66062" transform="translate(0,0)"/>
<path d="" fill="#E75E5F" transform="translate(0,0)"/>
<path d="" fill="#E96063" transform="translate(0,0)"/>
<path d="" fill="#E96063" transform="translate(0,0)"/>
<path d="" fill="#E45F61" transform="translate(0,0)"/>
<path d="" fill="#E45F63" transform="translate(0,0)"/>
<path d="" fill="#E85F64" transform="translate(0,0)"/>
<path d="" fill="#E66062" transform="translate(0,0)"/>
<path d="" fill="#E56064" transform="translate(0,0)"/>
<path d="" fill="#E56064" transform="translate(0,0)"/>
<path d="" fill="#E65F66" transform="translate(0,0)"/>
<path d="" fill="#E66167" transform="translate(0,0)"/>
<path d="" fill="#E85F64" transform="translate(0,0)"/>
<path d="" fill="#DA6365" transform="translate(0,0)"/>
<path d="" fill="#DA6365" transform="translate(0,0)"/>
<path d="" fill="#E85F64" transform="translate(0,0)"/>
<path d="" fill="#EA5E62" transform="translate(0,0)"/>
<path d="" fill="#E66062" transform="translate(0,0)"/>
<path d="" fill="#E85F62" transform="translate(0,0)"/>
<path d="" fill="#E86163" transform="translate(0,0)"/>
<path d="" fill="#E85F62" transform="translate(0,0)"/>
<path d="" fill="#E85F62" transform="translate(0,0)"/>
<path d="" fill="#E85F62" transform="translate(0,0)"/>
<path d="" fill="#E96063" transform="translate(0,0)"/>
<path d="" fill="#E85F62" transform="translate(0,0)"/>
<path d="" fill="#E75E61" transform="translate(0,0)"/>
<path d="" fill="#E85F62" transform="translate(0,0)"/>
<path d="" fill="#E85F62" transform="translate(0,0)"/>
<path d="" fill="#EB5D64" transform="translate(0,0)"/>
<path d="" fill="#E85F62" transform="translate(0,0)"/>
<path d="" fill="#EB5D62" transform="translate(0,0)"/>
<path d="" fill="#E96063" transform="translate(0,0)"/>
<path d="" fill="#E85F62" transform="translate(0,0)"/>
<path d="" fill="#E85F64" transform="translate(0,0)"/>
<path d="" fill="#E85F62" transform="translate(0,0)"/>
<path d="" fill="#E85F64" transform="translate(0,0)"/>
<path d="" fill="#E85F62" transform="translate(0,0)"/>
<path d="" fill="#E65D60" transform="translate(0,0)"/>
<path d="" fill="#E85F62" transform="translate(0,0)"/>
<path d="" fill="#E85F62" transform="translate(0,0)"/>
<path d="" fill="#E85F62" transform="translate(0,0)"/>
<path d="" fill="#E85F62" transform="translate(0,0)"/>
<path d="" fill="#E85F62" transform="translate(0,0)"/>
<path d="" fill="#E96063" transform="translate(0,0)"/>
<path d="" fill="#E75E61" transform="translate(0,0)"/>
<path d="" fill="#E86065" transform="translate(0,0)"/>
<path d="" fill="#E96063" transform="translate(0,0)"/>
<path d="" fill="#E65F64" transform="translate(0,0)"/>
<path d="" fill="#EB5D62" transform="translate(0,0)"/>
<path d="" fill="#E85F64" transform="translate(0,0)"/>
<path d="" fill="#EB5D62" transform="translate(0,0)"/>
<path d="" fill="#E25F65" transform="translate(0,0)"/>
<path d="" fill="#E36164" transform="translate(0,0)"/>
<path d="" fill="#E36164" transform="translate(0,0)"/>
<path d="" fill="#E85F62" transform="translate(0,0)"/>
<path d="" fill="#E66062" transform="translate(0,0)"/>
<path d="" fill="#E85F64" transform="translate(0,0)"/>
<path d="" fill="#E56064" transform="translate(0,0)"/>
<path d="" fill="#E65F66" transform="translate(0,0)"/>
<path d="" fill="#E75E61" transform="translate(0,0)"/>
<path d="" fill="#E85F62" transform="translate(0,0)"/>
<path d="" fill="#EB5F63" transform="translate(0,0)"/>
<path d="" fill="#EA5E64" transform="translate(0,0)"/>
<path d="" fill="#E85F62" transform="translate(0,0)"/>
<path d="" fill="#EA5E64" transform="translate(0,0)"/>
<path d="" fill="#E85F62" transform="translate(0,0)"/>
<path d="" fill="#EB5F63" transform="translate(0,0)"/>
<path d="" fill="#E85F62" transform="translate(0,0)"/>
<path d="" fill="#E96063" transform="translate(0,0)"/>
<path d="" fill="#E85F64" transform="translate(0,0)"/>
<path d="" fill="#E85F64" transform="translate(0,0)"/>
<path d="" fill="#E65F64" transform="translate(0,0)"/>
<path d="" fill="#E96063" transform="translate(0,0)"/>
<path d="" fill="#E75E61" transform="translate(0,0)"/>
<path d="" fill="#E96065" transform="translate(0,0)"/>
<path d="" fill="#E86065" transform="translate(0,0)"/>
<path d="" fill="#E96065" transform="translate(0,0)"/>
<path d="" fill="#EC6066" transform="translate(0,0)"/>
<path d="" fill="#E86065" transform="translate(0,0)"/>
<path d="" fill="#E85F64" transform="translate(0,0)"/>
<path d="" fill="#E85F64" transform="translate(0,0)"/>
<path d="" fill="#E85F62" transform="translate(0,0)"/>
<path d="" fill="#E65F64" transform="translate(0,0)"/>
<path d="" fill="#E56064" transform="translate(0,0)"/>
<path d="" fill="#E85F62" transform="translate(0,0)"/>
<path d="" fill="#E85F62" transform="translate(0,0)"/>
<path d="" fill="#E56064" transform="translate(0,0)"/>
<path d="" fill="#E66062" transform="translate(0,0)"/>
<path d="" fill="#E65F64" transform="translate(0,0)"/>
<path d="" fill="#E85F62" transform="translate(0,0)"/>
<path d="" fill="#E85F62" transform="translate(0,0)"/>
<path d="" fill="#E85F62" transform="translate(0,0)"/>
<path d="" fill="#E66062" transform="translate(0,0)"/>
<path d="" fill="#E85F62" transform="translate(0,0)"/>
<path d="" fill="#E85F62" transform="translate(0,0)"/>
<path d="" fill="#E96063" transform="translate(0,0)"/>
<path d="" fill="#E85D61" transform="translate(0,0)"/>
<path d="" fill="#E75E61" transform="translate(0,0)"/>
<path d="" fill="#EA5E62" transform="translate(0,0)"/>
<path d="" fill="#E66062" transform="translate(0,0)"/>
<path d="" fill="#E85F62" transform="translate(0,0)"/>
<path d="" fill="#E66062" transform="translate(0,0)"/>
<path d="" fill="#E75E61" transform="translate(0,0)"/>
<path d="" fill="#E85F62" transform="translate(0,0)"/>
<path d="" fill="#E96063" transform="translate(0,0)"/>
<path d="" fill="#E85F62" transform="translate(0,0)"/>
<path d="" fill="#D5676A" transform="translate(0,0)"/>
<path d="" fill="#D66768" transform="translate(0,0)"/>
<path d="" fill="#E56066" transform="translate(0,0)"/>
<path d="" fill="#E36166" transform="translate(0,0)"/>
<path d="" fill="#E96063" transform="translate(0,0)"/>
<path d="" fill="#E85F64" transform="translate(0,0)"/>
<path d="" fill="#E65F64" transform="translate(0,0)"/>
<path d="" fill="#E56064" transform="translate(0,0)"/>
<path d="" fill="#E75E61" transform="translate(0,0)"/>
<path d="" fill="#E75D63" transform="translate(0,0)"/>
<path d="" fill="#E86163" transform="translate(0,0)"/>
<path d="" fill="#E65F64" transform="translate(0,0)"/>
<path d="" fill="#E96063" transform="translate(0,0)"/>
<path d="" fill="#E96063" transform="translate(0,0)"/>
<path d="" fill="#E65F64" transform="translate(0,0)"/>
<path d="" fill="#E65F64" transform="translate(0,0)"/>
<path d="" fill="#E65F64" transform="translate(0,0)"/>
<path d="" fill="#E55E63" transform="translate(0,0)"/>
<path d="" fill="#E96063" transform="translate(0,0)"/>
<path d="" fill="#E96063" transform="translate(0,0)"/>
<path d="" fill="#E85F62" transform="translate(0,0)"/>
<path d="" fill="#E96063" transform="translate(0,0)"/>
<path d="" fill="#E85F62" transform="translate(0,0)"/>
<path d="" fill="#E85F62" transform="translate(0,0)"/>
<path d="" fill="#E85F62" transform="translate(0,0)"/>
<path d="" fill="#E85F62" transform="translate(0,0)"/>
<path d="" fill="#E85F62" transform="translate(0,0)"/>
<path d="" fill="#EA5E62" transform="translate(0,0)"/>
<path d="" fill="#E85F62" transform="translate(0,0)"/>
<path d="" fill="#E85F62" transform="translate(0,0)"/>
<path d="" fill="#E96063" transform="translate(0,0)"/>
<path d="" fill="#E85F62" transform="translate(0,0)"/>
<path d="" fill="#DF6668" transform="translate(0,0)"/>
<path d="" fill="#DE6368" transform="translate(0,0)"/>
</svg>
